<?xml version="1.0" encoding="UTF-8" standalone="no"?>
<!-- Created with Inkscape (http://www.inkscape.org/) -->

<svg
   width="139.55089"
   height="114.66939"
   viewBox="0 0 36.922838 30.339609"
   version="1.1"
   id="svg1"
   xml:space="preserve"
   xmlns="http://www.w3.org/2000/svg"
   xmlns:svg="http://www.w3.org/2000/svg"><defs
     id="defs1" /><g
     id="layer1"
     transform="translate(-8.3250012,-5.9574115)"><g
       id="g5"
       transform="matrix(1.0808218,0,0,1.0808218,-2.7403421,-0.2267224)"><g
         id="g1"
         transform="matrix(0.30321656,0,0,0.30321656,16.099456,4.4409828)"><path
           fill="#e27022"
           d="m 17.123,5.306 -3.324,4.042 -2.11,12.895 2.5,11.917 -2.5,5.035 0.482,11.388 2.234,4.5 c 0,0 6.933,-3.333 8.766,3.917 l 12.902,3.833 13.216,-4.25 0.715,-2.439 3.575,-2.278 3.523,0.548 2.573,-6.13 L 60.312,42 58.59,35.425 57.813,34.161 59.26,29.394 59.477,20.451 58.514,10.628 56.81,6.758 54.171,4.667 l -5.185,6.578 -5.482,6.707 h -1.333 l -5.16,-1.41 -9.173,0.58 -4.75,-5.039 -3.275,-5.166 z"
           id="path1"
           style="fill:#ff7f2a" /><path
           fill="#ffffff"
           d="m 11.338,45.083 c 6.042,-0.655 11.99,4.542 15.991,10.003 l 6.009,2.247 2.656,0.761 3.052,-0.844 5.709,-2.084 c 0,0 5.083,-11.25 15.916,-10.139 L 58.588,53.281 56.9,55 l -3.187,-0.844 -3.063,1.387 -1.517,3.09 c 0,0 -3.545,4.456 -12.869,4.45 -5.828,-0.003 -12.26,-1.375 -13.473,-4.484 -0.86,-2.207 -3.828,-5.037 -3.828,-5.037 l -4.493,0.357 z"
           id="path2" /><path
           fill="#d0cfce"
           d="m 28.796,60.958 c 0,0 -0.37,3.542 1.378,5.042 1.748,1.5 6.414,1.708 6.414,1.708 l 5.958,-1.791 c 0,0 1.708,-1.667 0.875,-5 l -2.75,0.791 -6.497,0.209 z"
           id="path3" /><path
           fill="#ffffff"
           d="m 57.671,7.375 -3.042,2.042 -4.458,5.958 -1.542,7.125 0.209,1.958 c 0,0 5,8.375 11.25,0.292 l -0.584,-8.583 -0.916,-7.25 z m -43.4,0 3.042,2.042 4.458,5.958 1.542,7.125 -0.208,1.958 c 0,0 -5,8.375 -11.25,0.292 l 0.583,-8.583 0.917,-7.25 z"
           id="path4" /><path
           d="m 29.045,41.681 c 0,0 -3.039,1.6 -4.509,1.017 -1.47,-0.583 -2.231,-2.14 -1.7,-3.478 0.531,-1.338 2.152,-1.952 3.622,-1.37 1.47,0.583 2.587,3.831 2.587,3.831"
           id="path5" /><path
           fill="none"
           stroke="#000000"
           stroke-linecap="round"
           stroke-linejoin="round"
           stroke-miterlimit="10"
           stroke-width="2"
           d="m 35.994,56.93 c -1.513,-0.235 -2.735,-0.913 -3.64,-2.076 V 54.156 M 16.916,10.288 c 0,0 7.751,5.915 5.324,13.667"
           id="path6" /><path
           fill="none"
           stroke="#000000"
           stroke-linecap="round"
           stroke-linejoin="round"
           stroke-miterlimit="10"
           stroke-width="2"
           d="m 23.607,58.094 c -1.488,-3.289 -4.481,-4.385 -5.186,-4.228 l -3.523,0.548 c -2.663,-2.662 -3.132,-10.18 -3.132,-10.18 -0.434,-4.77 1.03,-8.075 2.422,-10.075 l -0.387,-0.73 C 11.296,27.244 12.784,17.769 13.331,11.74 13.729,7.368 15.938,5.824 17.123,5.306 A 0.995,0.995 0 0 1 18.302,5.6 c 1.295,1.621 5.316,6.574 9.124,10.447 1.682,1.71 2.45,3.222 2.748,4.452"
           id="path7" /><path
           d="m 42.955,41.681 c 0,0 3.039,1.6 4.509,1.017 1.47,-0.583 2.231,-2.14 1.7,-3.478 -0.531,-1.338 -2.152,-1.952 -3.622,-1.37 -1.47,0.583 -2.587,3.831 -2.587,3.831"
           id="path8" /><path
           fill="none"
           stroke="#000000"
           stroke-linecap="round"
           stroke-linejoin="round"
           stroke-miterlimit="10"
           stroke-width="2"
           d="M 36.073,61.708 V 56.93 c 1.513,-0.234 2.736,-0.912 3.641,-2.075 v -0.698"
           id="path9" /><path
           fill="none"
           stroke="#000000"
           stroke-linecap="round"
           stroke-linejoin="round"
           stroke-miterlimit="10"
           stroke-width="2"
           d="m 43.747,50.156 1.174,5.837 c 0,0 0,6.655 -7.438,6.107 h -2.898 c -7.438,0.548 -7.438,-6.107 -7.438,-6.107 l 1.174,-5.837 M 55.084,10.288 c 0,0 -7.751,5.915 -5.324,13.667"
           id="path10" /><path
           fill="none"
           stroke="#000000"
           stroke-linecap="round"
           stroke-linejoin="round"
           stroke-miterlimit="10"
           stroke-width="2"
           d="m 48.393,58.094 c 1.488,-3.289 4.481,-4.385 5.186,-4.228 l 3.523,0.548 c 2.662,-2.662 3.132,-10.18 3.132,-10.18 0.434,-4.768 -1.03,-8.073 -2.421,-10.073 l 0.385,-0.732 C 60.704,27.244 59.216,17.769 58.668,11.74 58.271,7.368 56.061,5.824 54.878,5.306 A 0.995,0.995 0 0 0 53.698,5.6 c -1.295,1.621 -5.316,6.574 -9.124,10.447 -1.732,1.762 -2.496,3.312 -2.773,4.56 M 41.667,65.45 c -3.804,2.05 -7.418,2.088 -10.805,0 M 29.018,17.952 c 0,0 6.055,-3.184 13.78,-0.104"
           id="path11" /></g><g
         id="g4"
         transform="translate(0,-4.8959658)"><g
           id="text1"
           style="font-size:7.16932px;font-family:Nasalization;-inkscape-font-specification:Nasalization;fill:#ff6600;stroke-width:0.597442"
           aria-label="RESTFOX"><path
             d="m 10.237898,33.849243 v 0.845979 h 2.652648 c 0.466006,0 0.673917,0.293943 0.673917,0.63807 0,0.344127 -0.193572,0.673916 -0.673917,0.673916 h -1.885531 c -0.530529,0 -0.759948,0.222249 -0.759948,0.767117 v 1.914209 h 0.84598 V 36.93922 c 0,-0.08603 0.04302,-0.121879 0.121879,-0.121879 h 1.2618 l 1.104075,1.871193 h 0.939181 l -1.125583,-1.935717 c 0.73844,-0.20791 1.025213,-0.853149 1.025213,-1.455372 0,-0.774286 -0.466006,-1.448202 -1.555743,-1.448202 z m 6.574272,0 c -1.139922,0 -1.620267,0.544868 -1.620267,1.319155 0,0.530529 0.229419,0.903334 0.681086,1.089736 -0.444498,0.186403 -0.695424,0.559207 -0.695424,1.111245 0,0.752778 0.466006,1.319155 1.613097,1.319155 h 2.451907 v -0.84598 h -2.451907 c -0.494683,0 -0.731271,-0.229418 -0.731271,-0.609392 0,-0.394313 0.250926,-0.587884 0.73844,-0.587884 h 2.401722 V 35.87816 h -2.380214 c -0.487514,0 -0.73844,-0.179233 -0.73844,-0.573545 0,-0.372805 0.222249,-0.609393 0.731271,-0.609393 h 2.42323 v -0.845979 z m 4.810619,0 c -1.075398,0 -1.505557,0.587884 -1.505557,1.390848 0,0.673916 0.301111,1.398017 1.591589,1.398017 h 1.125583 c 0.595054,0 0.759948,0.286773 0.759948,0.602223 0,0.351297 -0.20791,0.602223 -0.666747,0.602223 h -2.724341 v 0.84598 h 2.695664 c 1.104075,0 1.541404,-0.602223 1.541404,-1.419526 0,-0.695424 -0.308281,-1.426694 -1.627436,-1.426694 h -1.132752 c -0.566377,0 -0.716932,-0.279604 -0.716932,-0.573546 0,-0.336958 0.193571,-0.573546 0.6309,-0.573546 h 2.480584 v -0.845979 z m 3.168839,0 v 0.845979 h 1.412356 v 3.993312 h 0.853149 v -3.993312 h 1.412356 v -0.845979 z"
             id="path12" /><path
             style="fill:#1a1a1a"
             d="m 31.007422,33.849243 c -1.283308,0 -1.785161,0.702593 -1.785161,1.670451 v 3.16884 h 0.84598 v -1.914209 h 2.917913 v -0.802964 h -2.917913 v -0.458836 c 0,-0.451667 0.229418,-0.817303 0.996536,-0.817303 h 1.950055 v -0.845979 z m 5.018524,0 c -1.405186,0 -2.186642,0.802964 -2.186642,2.430399 0,1.620267 0.774286,2.408892 2.186642,2.408892 h 0.659578 c 1.412356,0 2.186643,-0.788625 2.186643,-2.408892 0,-1.627435 -0.781456,-2.430399 -2.186643,-2.430399 z m 0.659578,0.845979 c 0.932012,0 1.333493,0.473176 1.333493,1.577251 0,1.111245 -0.401481,1.570081 -1.333493,1.570081 h -0.659578 c -0.93918,0 -1.340662,-0.458836 -1.340662,-1.562912 0,-1.111244 0.408651,-1.58442 1.340662,-1.58442 z m 2.580958,-0.845979 1.964393,2.31569 -2.165134,2.523601 h 1.04672 l 1.648944,-1.921378 1.605928,1.921378 h 1.032382 l -2.086272,-2.459077 2.071933,-2.380214 h -1.046721 l -1.555742,1.78516 -1.484049,-1.78516 z"
             id="path13" /></g></g></g></g></svg>
